<?xml version="1.0" encoding="UTF-8" standalone="no"?>
<svg
   xmlns:dc="http://purl.org/dc/elements/1.1/"
   xmlns:cc="http://creativecommons.org/ns#"
   xmlns:rdf="http://www.w3.org/1999/02/22-rdf-syntax-ns#"
   xmlns:svg="http://www.w3.org/2000/svg"
   xmlns="http://www.w3.org/2000/svg"
   xmlns:xlink="http://www.w3.org/1999/xlink"
   xmlns:sodipodi="http://sodipodi.sourceforge.net/DTD/sodipodi-0.dtd"
   xmlns:inkscape="http://www.inkscape.org/namespaces/inkscape"
   width="305pt"
   height="134pt"
   viewBox="0 0 305 134"
   version="1.1"
   id="svg90"
   sodipodi:docname="Phenylephrine _Structural_Formula_V1.svg"
   inkscape:version="0.92.2 5c3e80d, 2017-08-06">
  <metadata
     id="metadata94">
    <rdf:RDF>
      <cc:Work
         rdf:about="">
        <dc:format>image/svg+xml</dc:format>
        <dc:type
           rdf:resource="http://purl.org/dc/dcmitype/StillImage" />
        <dc:title></dc:title>
      </cc:Work>
    </rdf:RDF>
  </metadata>
  <sodipodi:namedview
     pagecolor="#ffffff"
     bordercolor="#666666"
     borderopacity="1"
     objecttolerance="10"
     gridtolerance="10"
     guidetolerance="10"
     inkscape:pageopacity="0"
     inkscape:pageshadow="2"
     inkscape:window-width="640"
     inkscape:window-height="480"
     id="namedview92"
     showgrid="false"
     inkscape:zoom="0.92459016"
     inkscape:cx="203.33333"
     inkscape:cy="89.333333"
     inkscape:window-x="0"
     inkscape:window-y="0"
     inkscape:window-maximized="0"
     inkscape:current-layer="svg90" />
  <defs
     id="defs25">
    <g
       id="g23">
      <symbol
         overflow="visible"
         id="glyph0-0">
        <path
           style="stroke:none;"
           d="M 3 0 L 3 -15 L 15 -15 L 15 0 Z M 3.375 -0.375 L 14.625 -0.375 L 14.625 -14.625 L 3.375 -14.625 Z M 3.375 -0.375 "
           id="path2" />
      </symbol>
      <symbol
         overflow="visible"
         id="glyph0-1">
        <path
           style="stroke:none;"
           d="M 1.921875 0 L 1.921875 -17.1875 L 4.203125 -17.1875 L 4.203125 -10.125 L 13.125 -10.125 L 13.125 -17.1875 L 15.40625 -17.1875 L 15.40625 0 L 13.125 0 L 13.125 -8.09375 L 4.203125 -8.09375 L 4.203125 0 Z M 1.921875 0 "
           id="path5" />
      </symbol>
      <symbol
         overflow="visible"
         id="glyph0-2">
        <path
           style="stroke:none;"
           d="M 1.828125 0 L 1.828125 -17.1875 L 4.15625 -17.1875 L 13.1875 -3.6875 L 13.1875 -17.1875 L 15.359375 -17.1875 L 15.359375 0 L 13.03125 0 L 4.015625 -13.5 L 4.015625 0 Z M 1.828125 0 "
           id="path8" />
      </symbol>
      <symbol
         overflow="visible"
         id="glyph0-3">
        <path
           style="stroke:none;"
           d="M 14.109375 -6.03125 L 16.390625 -5.453125 C 15.910156 -3.585938 15.050781 -2.160156 13.8125 -1.171875 C 12.570312 -0.191406 11.054688 0.296875 9.265625 0.296875 C 7.421875 0.296875 5.914062 -0.078125 4.75 -0.828125 C 3.59375 -1.585938 2.710938 -2.679688 2.109375 -4.109375 C 1.503906 -5.546875 1.203125 -7.082031 1.203125 -8.71875 C 1.203125 -10.507812 1.539062 -12.070312 2.21875 -13.40625 C 2.90625 -14.738281 3.878906 -15.75 5.140625 -16.4375 C 6.398438 -17.125 7.789062 -17.46875 9.3125 -17.46875 C 11.03125 -17.46875 12.472656 -17.03125 13.640625 -16.15625 C 14.816406 -15.28125 15.632812 -14.050781 16.09375 -12.46875 L 13.859375 -11.9375 C 13.453125 -13.1875 12.867188 -14.097656 12.109375 -14.671875 C 11.359375 -15.242188 10.410156 -15.53125 9.265625 -15.53125 C 7.941406 -15.53125 6.835938 -15.210938 5.953125 -14.578125 C 5.066406 -13.941406 4.441406 -13.09375 4.078125 -12.03125 C 3.722656 -10.96875 3.546875 -9.867188 3.546875 -8.734375 C 3.546875 -7.273438 3.753906 -6 4.171875 -4.90625 C 4.597656 -3.8125 5.257812 -2.992188 6.15625 -2.453125 C 7.0625 -1.921875 8.035156 -1.65625 9.078125 -1.65625 C 10.359375 -1.65625 11.4375 -2.019531 12.3125 -2.75 C 13.195312 -3.488281 13.796875 -4.582031 14.109375 -6.03125 Z M 14.109375 -6.03125 "
           id="path11" />
      </symbol>
      <symbol
         overflow="visible"
         id="glyph0-4">
        <path
           style="stroke:none;"
           d="M 1.15625 -8.375 C 1.15625 -11.21875 1.921875 -13.445312 3.453125 -15.0625 C 4.984375 -16.675781 6.960938 -17.484375 9.390625 -17.484375 C 10.972656 -17.484375 12.398438 -17.101562 13.671875 -16.34375 C 14.953125 -15.59375 15.925781 -14.535156 16.59375 -13.171875 C 17.257812 -11.816406 17.59375 -10.28125 17.59375 -8.5625 C 17.59375 -6.820312 17.238281 -5.265625 16.53125 -3.890625 C 15.832031 -2.515625 14.835938 -1.472656 13.546875 -0.765625 C 12.253906 -0.0546875 10.863281 0.296875 9.375 0.296875 C 7.757812 0.296875 6.3125 -0.09375 5.03125 -0.875 C 3.757812 -1.65625 2.796875 -2.722656 2.140625 -4.078125 C 1.484375 -5.429688 1.15625 -6.863281 1.15625 -8.375 Z M 3.5 -8.328125 C 3.5 -6.265625 4.054688 -4.632812 5.171875 -3.4375 C 6.285156 -2.25 7.679688 -1.65625 9.359375 -1.65625 C 11.078125 -1.65625 12.488281 -2.253906 13.59375 -3.453125 C 14.695312 -4.660156 15.25 -6.367188 15.25 -8.578125 C 15.25 -9.972656 15.007812 -11.191406 14.53125 -12.234375 C 14.0625 -13.285156 13.367188 -14.097656 12.453125 -14.671875 C 11.546875 -15.242188 10.53125 -15.53125 9.40625 -15.53125 C 7.789062 -15.53125 6.398438 -14.976562 5.234375 -13.875 C 4.078125 -12.769531 3.5 -10.921875 3.5 -8.328125 Z M 3.5 -8.328125 "
           id="path14" />
      </symbol>
      <symbol
         overflow="visible"
         id="glyph1-0">
        <path
           style="stroke:none;"
           d="M 2.25 0 L 2.25 -11.25 L 11.25 -11.25 L 11.25 0 Z M 2.53125 -0.28125 L 10.96875 -0.28125 L 10.96875 -10.96875 L 2.53125 -10.96875 Z M 2.53125 -0.28125 "
           id="path17" />
      </symbol>
      <symbol
         overflow="visible"
         id="glyph1-1">
        <path
           style="stroke:none;"
           d="M 0.75 -3.40625 L 2.34375 -3.609375 C 2.519531 -2.710938 2.828125 -2.066406 3.265625 -1.671875 C 3.703125 -1.273438 4.234375 -1.078125 4.859375 -1.078125 C 5.609375 -1.078125 6.238281 -1.332031 6.75 -1.84375 C 7.257812 -2.363281 7.515625 -3.003906 7.515625 -3.765625 C 7.515625 -4.492188 7.273438 -5.09375 6.796875 -5.5625 C 6.328125 -6.039062 5.726562 -6.28125 5 -6.28125 C 4.695312 -6.28125 4.320312 -6.21875 3.875 -6.09375 L 4.046875 -7.484375 C 4.148438 -7.472656 4.238281 -7.46875 4.3125 -7.46875 C 4.976562 -7.46875 5.582031 -7.644531 6.125 -8 C 6.664062 -8.351562 6.9375 -8.894531 6.9375 -9.625 C 6.9375 -10.207031 6.738281 -10.6875 6.34375 -11.0625 C 5.945312 -11.445312 5.441406 -11.640625 4.828125 -11.640625 C 4.210938 -11.640625 3.695312 -11.445312 3.28125 -11.0625 C 2.875 -10.675781 2.613281 -10.09375 2.5 -9.3125 L 0.921875 -9.59375 C 1.109375 -10.65625 1.546875 -11.476562 2.234375 -12.0625 C 2.921875 -12.644531 3.773438 -12.9375 4.796875 -12.9375 C 5.492188 -12.9375 6.140625 -12.785156 6.734375 -12.484375 C 7.328125 -12.179688 7.78125 -11.769531 8.09375 -11.25 C 8.40625 -10.726562 8.5625 -10.175781 8.5625 -9.59375 C 8.5625 -9.03125 8.410156 -8.519531 8.109375 -8.0625 C 7.816406 -7.613281 7.375 -7.253906 6.78125 -6.984375 C 7.539062 -6.804688 8.128906 -6.4375 8.546875 -5.875 C 8.972656 -5.320312 9.1875 -4.632812 9.1875 -3.8125 C 9.1875 -2.6875 8.773438 -1.726562 7.953125 -0.9375 C 7.140625 -0.15625 6.109375 0.234375 4.859375 0.234375 C 3.722656 0.234375 2.78125 -0.101562 2.03125 -0.78125 C 1.289062 -1.457031 0.863281 -2.332031 0.75 -3.40625 Z M 0.75 -3.40625 "
           id="path20" />
      </symbol>
    </g>
  </defs>
  <path
     inkscape:connector-curvature="0"
     id="path29"
     d="m 62.351562,109.69922 -1.703124,0.98047 V 70.992188 L 61.5,70.5 l 0.851562,0.492188 z m 0,0"
     style="fill:#000000;fill-opacity:1;fill-rule:nonzero;stroke:none" />
  <path
     inkscape:connector-curvature="0"
     id="path31"
     d="M 68.304688,106.75391 H 66.601562 V 73.9375 h 1.703126 z m 0,0"
     style="fill:#000000;fill-opacity:1;fill-rule:nonzero;stroke:none" />
  <path
     inkscape:connector-curvature="0"
     id="path33"
     d="m 95.871094,129.05469 v 1.96093 l -35.222656,-20.33593 1.703124,-0.98047 z m 0,0"
     style="fill:#000000;fill-opacity:1;fill-rule:nonzero;stroke:none" />
  <path
     inkscape:connector-curvature="0"
     id="path35"
     d="m 129.39453,109.69922 1.69922,0.98047 -35.222656,20.33593 v -1.96093 z m 0,0"
     style="fill:#000000;fill-opacity:1;fill-rule:nonzero;stroke:none" />
  <path
     inkscape:connector-curvature="0"
     id="path37"
     d="m 123.86719,106.01563 0.84765,1.47265 -28.417965,16.41016 -0.847656,-1.47266 z m 0,0"
     style="fill:#000000;fill-opacity:1;fill-rule:nonzero;stroke:none" />
  <path
     inkscape:connector-curvature="0"
     id="path39"
     d="M 129.39453,70.992188 130.24609,70.5 l 0.84766,0.492188 v 39.687502 l -1.69922,-0.98047 z m 0,0"
     style="fill:#000000;fill-opacity:1;fill-rule:nonzero;stroke:none" />
  <path
     inkscape:connector-curvature="0"
     id="path41"
     d="M 95.871094,51.636719 V 49.671875 L 130.24609,69.519531 V 70.5 l -0.85156,0.492188 z m 0,0"
     style="fill:#000000;fill-opacity:1;fill-rule:nonzero;stroke:none" />
  <path
     inkscape:connector-curvature="0"
     id="path43"
     d="m 95.449219,58.265625 0.847656,-1.472656 28.417965,16.40625 -0.84765,1.472656 z m 0,0"
     style="fill:#000000;fill-opacity:1;fill-rule:nonzero;stroke:none" />
  <path
     inkscape:connector-curvature="0"
     id="path45"
     d="M 62.351562,70.992188 61.5,70.5 V 69.519531 L 95.871094,49.671875 v 1.964844 z m 0,0"
     style="fill:#000000;fill-opacity:1;fill-rule:nonzero;stroke:none" />
  <path
     inkscape:connector-curvature="0"
     id="path47"
     d="m 163.71875,50.191406 0.89844,0.464844 v 0.980469 L 131.09375,70.992188 130.24609,70.5 v -0.980469 z m 0,0"
     style="fill:#000000;fill-opacity:1;fill-rule:nonzero;stroke:none" />
  <path
     inkscape:connector-curvature="0"
     id="path49"
     d="m 198.98828,69.519531 v 1.960938 L 164.61719,51.636719 V 50.65625 l 0.89843,-0.464844 z m 0,0"
     style="fill:#000000;fill-opacity:1;fill-rule:nonzero;stroke:none" />
  <use
     style="fill:#000000;fill-opacity:1"
     xlink:href="#glyph0-1"
     x="224.6967"
     y="39.176891"
     id="use51"
     width="100%"
     height="100%" />
  <use
     style="fill:#000000;fill-opacity:1"
     xlink:href="#glyph0-2"
     x="224.6967"
     y="59.21986"
     id="use55"
     width="100%"
     height="100%" />
  <path
     inkscape:connector-curvature="0"
     id="path59"
     d="m 222.52734,55.929688 0.85157,1.472656 -24.39063,14.078125 v -1.960938 z m 0,0"
     style="fill:#000000;fill-opacity:1;fill-rule:nonzero;stroke:none" />
  <use
     style="fill:#000000;fill-opacity:1"
     xlink:href="#glyph0-3"
     x="259.06921"
     y="79.211327"
     id="use61"
     width="100%"
     height="100%" />
  <use
     style="fill:#000000;fill-opacity:1"
     xlink:href="#glyph0-1"
     x="276.40201"
     y="79.211327"
     id="use63"
     width="100%"
     height="100%" />
  <use
     style="fill:#000000;fill-opacity:1"
     xlink:href="#glyph1-1"
     x="293.73325"
     y="84.297256"
     id="use67"
     width="100%"
     height="100%" />
  <path
     inkscape:connector-curvature="0"
     id="path71"
     d="m 259.26562,64.628906 -0.84765,1.472656 -15.30469,-8.835937 0.84766,-1.472656 z m 0,0"
     style="fill:#000000;fill-opacity:1;fill-rule:nonzero;stroke:none" />
  <use
     style="fill:#000000;fill-opacity:1"
     xlink:href="#glyph0-1"
     x="0.461447"
     y="59.3722"
     id="use73"
     width="100%"
     height="100%" />
  <use
     style="fill:#000000;fill-opacity:1"
     xlink:href="#glyph0-4"
     x="17.794247"
     y="59.3722"
     id="use75"
     width="100%"
     height="100%" />
  <path
     inkscape:connector-curvature="0"
     id="path79"
     d="M 36.183594,56.863281 37.035156,55.394531 61.5,69.519531 V 70.5 l -0.851562,0.492188 z m 0,0"
     style="fill:#000000;fill-opacity:1;fill-rule:nonzero;stroke:none" />
  <use
     style="fill:#000000;fill-opacity:1"
     xlink:href="#glyph0-4"
     x="155.2836"
     y="19.68218"
     id="use81"
     width="100%"
     height="100%" />
  <use
     style="fill:#000000;fill-opacity:1"
     xlink:href="#glyph0-1"
     x="173.95081"
     y="19.68218"
     id="use83"
     width="100%"
     height="100%" />
  <path
     inkscape:connector-curvature="0"
     id="path87"
     d="m 160.79297,22.242188 h 7.64844 l -2.92579,27.949218 -0.89843,0.464844 -0.89844,-0.464844 z m 0,0"
     style="fill:#000000;fill-opacity:1;fill-rule:nonzero;stroke:none" />
</svg>
